<?xml version="1.0" encoding="utf-8"?>
<!-- Generator: Adobe Illustrator 19.1.0, SVG Export Plug-In . SVG Version: 6.00 Build 0)  -->
<svg version="1.1" xmlns="http://www.w3.org/2000/svg" xmlns:xlink="http://www.w3.org/1999/xlink" x="0px" y="0px"
	 viewBox="0 0 1080 1080" style="enable-background:new 0 0 1080 1080;" xml:space="preserve">
<style type="text/css">
	.st0{fill:#231F20;}
	.st1{fill:#FFFFFF;stroke:#231F20;stroke-miterlimit:10;}
	.st2{fill:#FFFFFF;}
	.st3{fill:#808285;stroke:#231F20;stroke-width:13;stroke-miterlimit:10;}
	.st4{fill:none;stroke:#231F20;stroke-width:16;stroke-miterlimit:10;}
	.st5{fill:none;stroke:#000102;stroke-width:10;stroke-miterlimit:10;}
	.st6{fill:none;stroke:#000102;stroke-width:8;stroke-miterlimit:10;}
	.st7{fill:none;stroke:#000102;stroke-width:9;stroke-miterlimit:10;}
	.st8{fill:none;stroke:#000102;stroke-width:18;stroke-miterlimit:10;}
	.st9{fill:none;stroke:#000102;stroke-width:5;stroke-miterlimit:10;}
	.st10{fill:#231F20;stroke:#000102;stroke-width:5;stroke-miterlimit:10;}
	.st11{fill:#BE1E2D;stroke:#231F20;stroke-miterlimit:10;}
	#large.active,#medium.active,#small_1_.active{
    display:block;
    opacity:0;
    -o-animation:wifianimation 3s infinite;
    -moz-animation:wifianimation 3s infinite;
    -webkit-animation:wifianimation 3s infinite;
    animation:wifianimation 3s infinite;
}
  
#large.active{
  -webkit-animation-delay: 1200ms;
  animation-delay: 1200ms;
}
#medium.active{
  -webkit-animation-delay: 800ms;
  animation-delay: 800ms;
}
#small_1_.active{
  -webkit-animation-delay: 400ms;
  animation-delay: 400ms;
}
  
  
  
    
#large.active,#medium.active,#small_1_.active{
  
animation-name: wifianimation;
  -webkit-animation-name: wifianimation;

  animation-duration: 3s;
  -webkit-animation-duration: 3s;


}

@-o-keyframes wifianimation 
{
  0% { opacity: 0.4 }
  5% { opactiy: 1 }
  6% { opactiy: 0.1 }
  100% { opactiy: 0.1; }
}
@-moz-keyframes wifianimation 
{
  0% { opacity: 0.4 }
  5% { opactiy: 1 }
  6% { opactiy: 0.1 }
  100% { opactiy: 0.1; }
}
@-webkit-keyframes wifianimation 
{
  0% { opacity: 0.4 }
  5% { opactiy: 1 }
  6% { opactiy: 0.1 }
  100% { opactiy: 0.1; }
</style>
<g id="microphone">
	<path class="st0" d="M528.7,823.5c0.8,1.5,0.9,6.5,1,16.3c0.1,8.9,0,11,0,18c0.1,10.2,0.4,14.2,0.4,25.9c0,13.5-0.5,14.9-1.5,16.2
		c-3.4,4.4-9.4,4.1-30.1,3.4c-28.2-0.9,9.4,0.5-39.1-1.1c-1,0-9.8-0.3-20.7-0.4c-18.1-0.1-15.1,0.7-16.5,0.4c-1.5-0.3-4-1-5.5,0.3
		c-1.4,1.3-1.2,3.6-0.9,6.8c0,0,0.1,0.9,0.8,14.3c0.4,7.8,0.4,12,0.4,12c0,5-0.2,6.2,0.8,7.5c2.1,2.6,6.6,2,12.8,1.5
		c6.1-0.4,12.3,0.2,18.4-0.4c7.5-0.7,10.3-0.3,37.2,0c31.9,0.4,30.2-0.1,75.2,0.4c37.6,0.4,56.3,0.6,62.4,0.8c0,0,16.3,0.5,46,0.1
		c10-0.1,7.2-0.6,12.6-0.5c3,0.1,4.9,0.7,6.4-0.5c1.7-1.4,1.4-3.9,1.1-8.9c-0.3-6.6-0.4-14.2-0.4-17.7c0.1-7.3,0.7-8.8-0.8-10.5
		c-2.6-3.1-7.9-2.4-13.2-1.9c-9,0.8-18.1-0.1-27.1,0.4c-10.3,0.6-7.2-0.5-33.5-0.8c-23.6-0.3-30.2,0.6-34.2-4.5
		c-1.1-1.3-1.4-2.3-2.6-17.3c-1.1-12.3-1.5-20.8-1.9-27.1c-0.6-10.6-0.8-14.4-0.8-19.5c0-8.9,0.1-13.3,0.8-14.7
		c5.4-10.6,28.2-3.9,55.3-9.8c16.7-3.7,28.1-10.6,38.1-16.8c38.1-23.4,55.1-59.1,60.7-71.5c10.5-22.9,13.2-42.1,16.5-65.8
		c0.4-2.9,0.8-15.1,1.5-39.5c0.4-13.5,0.5-19.4-3.8-23.2c-3.3-3-5.9-1.6-25-3c-12.5-0.9-15.5-1.7-18.2,0.7
		c-4.3,3.9-2.6,11.8-1.5,19.2c0,0,0.2,1.4-0.3,43.2c0,3.7-0.5,30.2-14,56c-16.9,32.3-45,47.6-54,52c-22.6,11.1-42.3,11.9-70,13
		c-13.6,0.5-32.7,1.2-57-4c-24.6-5.3-47.2-10.1-66-29c-17.3-17.4-22.6-38-26.7-53.8c-5.8-22.5-5.4-41.8-4.1-54.1
		c-0.8-9.8-0.3-17.7,0.4-23.3c1.1-9.8,3.1-15.2,0-18c-1.7-1.6-3.5-0.9-14.3-0.8c-7.8,0.1-6.5-0.2-13.3,0c-11.3,0.3-16.9,0.4-19,2
		c-4.6,3.5-3.9,10.5-3.4,25.1c1,27.2-0.9,18.4,0.4,36.9c1.4,20.2,2.2,30.3,5.2,42.4c1.3,5.1,7.1,27,23.8,50.6c6.3,9,22,30.6,50,46
		c12.3,6.7,30.3,16.6,55.2,18.8C508.3,816.7,524.1,814.9,528.7,823.5z"/>
	<path class="st0" d="M451.3,567.3c-1.7-96.3-7-112.3,8-134c3.4-4.9,18.7-26,45-34c7.4-2.2,18.6-2.8,41-4c23.4-1.2,35.1-1.8,44,0
		c8,1.7,27.5,6.8,44,23c10,9.8,21,25.5,17,31c-1.4,1.9-4,1.6-15.6,1.9c-16.8,0.4-13.4,1.1-23.4,1.1c-19.3-0.1-28.1-2.7-31,2
		c-1.2,2-1.4,5.3-1.6,8.2c-0.1,2.4-0.3,5.9,0.6,7.8c2.5,5.3,15.6,4.1,34.4,2.7c28.3-2.1,34.8-2.2,38.6,2.3
		c3.6,4.2,3.8,11.5,0.9,15.8c-1.4,2-4.3,4.6-25.2,5.3c-16.5,0.5-24.8,0.8-31.7,0c-7.7-0.9-13.3-2.2-16,1c-0.5,0.6-1.2,1.7-1.2,11.4
		c0,9.6,0.6,10.7,1.1,11.3c2.7,3.3,8.5,2.2,15.8,1.5c10.4-1,0.6,1,31.3-0.2c17.6-0.7,24.6-1.5,27.4,2.8c1.7,2.7,1.8,7.2,1.9,9.8
		c0.1,4,0.1,6.2-1.1,7.9c-2.7,3.6-9.3,1.8-19.2,1.1c-8.8-0.6-6.2,0.6-20.9,0.4c-23.5-0.3-32.8-3.4-35.8,1.5
		c-0.5,0.8-0.4,3.9-0.4,10.1c0.1,10.7,0.8,11.8,1.2,12.3c2.1,2.7,5.5,2.3,17.6,2.3c15.6,0,13.1,0.7,22.6,0.4
		c6.3-0.2,12.5-0.2,18.8-0.4c6.7-0.2,9.3-0.4,11.3,1.5c3.3,3.2,3.1,10.6-0.4,13.9c-2.4,2.2-5.5,1.8-12.4,1.5
		c-7.9-0.3,10.7,0.9-19.9,0c-9.4-0.3-18.8,0.6-28.2,0c-4.4-0.3-8.5-0.7-10.9,1.9c-1.8,1.9-1.8,4.7-1.9,9.8
		c-0.1,5.3-0.1,7.9,1.5,10.1c2.4,3.4,7,3.8,13.6,4.2c13.5,0.8,20.3,1.3,25.9,1.1c8.6-0.2,17.3,0.3,25.9-0.4
		c5.7-0.4,11.2-1.1,13.2,1.9c0.9,1.3,0.6,3.6,0,8.3c-0.7,5.2-1,7.8-2.3,9c-2.8,2.7-8.2,0.5-13.5-0.8c-7.6-1.8-6.9,0.1-25.8-0.3
		c-24.3-0.5-31.3-3.8-35.1,1.1c-2.2,2.9-2.1,6.8-1.9,12.8c0.2,4.6,0.3,9.7,3.8,13.2c1.9,2,4.3,2.8,10.5,3.8
		c8.7,1.3,15.4,1.2,25.2,1.1c6-0.1,12,0.4,18,0c8.7-0.6,14.1-1.9,16.5,1.1c1.1,1.4,1.1,3.2,1.1,6.8c0,3.6,0.1,7.2-1.9,9
		c-2.4,2.3-6.6,0.9-11.3,0c-1.6-0.3-9.2-0.6-24.4-1.1c-1.1,0-8.5,0.1-23.3,0.4c-8.2,0.2-12.3,0.3-14.3,3c-1.3,1.8-1.1,5.2-0.8,12
		c0.4,6.1,0.5,9.2,1.1,10.1c3.7,6,17.2,1.8,38.6,0.7c18.8-1,30.3-1.6,33.6,4.2c4.4,7.7-7.9,23.5-17.6,31.8c-12,10.3-25.1,13.4-36,16
		c-4.6,1.1-15.6,3.4-40,3c-32.5-0.5-48.8-0.8-65-9c-5.5-2.8-23-11.9-34-31c-11.9-20.7-7.2-37.5-6-86
		C452.4,629.6,452.1,608.8,451.3,567.3z"/>
	<path class="st1" d="M480.3,445c3.2-4.8,10.8-2.1,28-2.7c17.2-0.6,23.7-3.7,27.3,0.7c0.6,0.7,1.1,1.6,2,15.3
		c0.7,11,0.6,11.8,0,12.7c-2.9,4.6-10,2.8-28,3.3c-18.9,0.6-25.3,3.1-28.7-1.3c-1.1-1.4-1.2-6.5-1.3-16.7
		C479.5,446.6,479.8,445.8,480.3,445z"/>
	<path class="st0" d="M525.4,468.9c-2.4,1.3-5.6,1.4-8,0c-6.3-3.7-6.5-17.4,0-21.3c2.5-1.5,6.1-1.6,8.7,0
		C532.3,451.4,531.9,465.2,525.4,468.9z"/>
	<g>
		<path class="st2" d="M488.4,430.4c0,2.8-1.7,4.3-3.8,4.3c-2.1,0-3.6-1.7-3.6-4.1c0-2.6,1.6-4.2,3.8-4.2
			C487,426.3,488.4,428,488.4,430.4z M482.2,430.5c0,1.7,0.9,3.3,2.6,3.3c1.7,0,2.6-1.5,2.6-3.4c0-1.6-0.8-3.3-2.6-3.3
			C483,427.2,482.2,428.8,482.2,430.5z"/>
		<path class="st2" d="M489.8,430.3c0-0.6,0-1.1,0-1.6h0.9l0.1,1h0c0.3-0.6,1-1.1,1.9-1.1c0.8,0,2.1,0.5,2.1,2.5v3.5h-1.1v-3.3
			c0-0.9-0.3-1.7-1.3-1.7c-0.7,0-1.2,0.5-1.4,1.1c0,0.1-0.1,0.3-0.1,0.5v3.5h-1.1V430.3z"/>
		<path class="st2" d="M505.7,435l3.3-8.7h0.8l-3.4,8.7H505.7z"/>
		<path class="st2" d="M527.8,430.4c0,2.8-1.7,4.3-3.8,4.3c-2.1,0-3.6-1.7-3.6-4.1c0-2.6,1.6-4.2,3.8-4.2
			C526.4,426.3,527.8,428,527.8,430.4z M521.6,430.5c0,1.7,0.9,3.3,2.6,3.3c1.7,0,2.6-1.5,2.6-3.4c0-1.6-0.8-3.3-2.6-3.3
			C522.4,427.2,521.6,428.8,521.6,430.5z"/>
		<path class="st2" d="M532.9,434.5v-5h-2.4v5h-1v-5h-0.8v-0.8h0.8v-0.2c0-0.8,0.2-1.5,0.6-2c0.3-0.3,0.8-0.5,1.5-0.5
			c0.3,0,0.6,0.1,0.8,0.2l-0.2,0.8c-0.2-0.1-0.4-0.1-0.6-0.1c-0.8,0-1.1,0.7-1.1,1.6v0.3h2.4v-0.3c0-0.8,0.2-1.6,0.7-2
			c0.4-0.4,0.9-0.5,1.4-0.5c0.4,0,0.7,0.1,0.9,0.2l-0.1,0.8c-0.2-0.1-0.4-0.1-0.7-0.1c-0.9,0-1.1,0.8-1.1,1.7v0.3h1.4v0.8H534v5
			H532.9z"/>
	</g>
</g>
<g id="michover">
	<path class="st3" d="M814.2,332.7c5.9,0.5,7.2,3.3,28,20c24.5,19.8,27.4,19.7,29,25c6.1,19.6-21.5,56.6-55,58
		c-14.4,0.6-34.6-5.1-44-22c-9.7-17.4-2.2-36.1,1-44C780,353,796.7,331.2,814.2,332.7z"/>
	<path class="st4" d="M734.2,465.4c6-1.2,15.8-3.9,26-11c12.5-8.7,19-19.3,22-25"/>
	<path class="st4" d="M1009.5,231.8"/>
	<path class="st3" d="M827.6,339.7c6-6.4,11.9-12.9,17.9-19.3"/>
	<path class="st3" d="M856.3,359c5.2-6.4,10.5-12.9,15.7-19.3"/>
	<path class="st5" d="M838,306.6c5.8,5,10.2,3.7,49.5,4.1c8.8,0.1,42.3,0.4,68.8,1.4c39.6,1.4,44.8,3.7,51.3-1.8
		c10.1-8.5,6.2-21.2,6-72c-0.1-14,0.1-37.2,0.5-76.6c0.3-36.3,0.7-47.3-7.8-55c-6.3-5.7-12.2-4.8-44.1-5
		c-26.8-0.2-53.6-0.8-80.4-0.7c-32.8,0.1-38.4-0.1-44.2,5.2c-8,7.4-7.9,23.1-7.4,54.1c1.2,68.2,1.4,58.8,1.5,71.2
		C832.1,284.1,827.2,297.3,838,306.6z"/>
	<path class="st6" d="M882,223.2c3.8-3.1,7.1-3.4,37.6-3.2c32.9,0.2,36.1,0.5,39.9,3.7c13.7,11.5,13.1,42.5-1,53.4
		c-3.7,2.8-6.8,3.2-38.5,2.5c-30.8-0.7-33.9-1.1-37.6-4.1C868.8,264.2,868.6,234.2,882,223.2z"/>
	<path class="st7" d="M885.2,131.1c4.1-3.1,7.1-2.6,34-2.3c30.7,0.3,33.7-0.2,38,3.1c13.9,10.8,14.5,41.5,1.3,51.9
		c-4.1,3.2-7.3,2.7-32.7,2.3c-34.3-0.6-37.5,0.1-41.9-3.7C870.7,171.1,871.8,141.2,885.2,131.1z"/>
	<path class="st8" d="M1012.7,210.8"/>
	<path class="st9" d="M905.5,140.5c-0.1,4.6-0.1,9.3-0.2,13.9"/>
	<path class="st9" d="M933.9,141.2c0,4.5-0.1,9.1-0.1,13.6"/>
	<path class="st10" d="M915.8,174.6c0.6,0,0.7,0,1.5,0c1,0,2,0,3.6,0.1c5.8,0.3,6.8,0.9,7.7,0.1c1.7-1.5,1.1-6.6-2-9.4
		c-2.7-2.4-6.7-2.6-9.5-1.1c-2.3,1.3-3.2,3.4-4.3,5.8c-0.6,1.3-1.3,3-0.6,3.9C912.7,174.6,913.8,174.6,915.8,174.6z"/>
	<path class="st10" d="M915.5,268.4c0.6,0,0.7,0,1.5-0.1c1-0.1,2-0.1,3.6,0c5.8,0.1,6.8,0.7,7.7-0.1c1.7-1.5,0.9-6.6-2.3-9.3
		c-2.7-2.3-6.8-2.4-9.5-0.8c-2.3,1.3-3.1,3.5-4.1,6c-0.5,1.3-1.2,3.1-0.5,3.9C912.4,268.5,913.5,268.5,915.5,268.4z"/>
	<path class="st9" d="M902,231.8c-0.1,5.1-0.2,10.1-0.3,15.2"/>
	<path class="st9" d="M935.3,233.2c-0.1,5.2-0.1,10.4-0.2,15.6"/>
</g>
<g id="micoff">
	
		<rect x="170.7" y="633.7" transform="matrix(-0.5581 0.8298 -0.8298 -0.5581 1355.3274 590.5682)" class="st11" width="699.4" height="44.9"/>
	
		<rect x="215" y="638" transform="matrix(0.5373 0.8434 -0.8434 0.5373 818.3278 -170.6231)" class="st11" width="699.4" height="44.9"/>
</g>
<g id="micon">
	<path class="st1" d="M480.3,445c3.2-4.8,10.8-2.1,28-2.7c17.2-0.6,23.7-3.7,27.3,0.7c0.6,0.7,1.1,1.6,2,15.3
		c0.7,11,0.6,11.8,0,12.7c-2.9,4.6-10,2.8-28,3.3c-18.9,0.6-25.3,3.1-28.7-1.3c-1.1-1.4-1.2-6.5-1.3-16.7
		C479.5,446.6,479.8,445.8,480.3,445z"/>
	<path class="st0" d="M498.5,468.9c-2.4,1.3-5.6,1.4-8,0c-6.3-3.7-6.5-17.4,0-21.3c2.5-1.5,6.1-1.6,8.7,0
		C505.4,451.4,505,465.2,498.5,468.9z"/>
	<g>
		<path class="st2" d="M488.4,430.4c0,2.8-1.7,4.3-3.8,4.3c-2.1,0-3.6-1.7-3.6-4.1c0-2.6,1.6-4.2,3.8-4.2
			C487,426.3,488.4,428,488.4,430.4z M482.2,430.5c0,1.7,0.9,3.3,2.6,3.3c1.7,0,2.6-1.5,2.6-3.4c0-1.6-0.8-3.3-2.6-3.3
			C483,427.2,482.2,428.8,482.2,430.5z"/>
		<path class="st2" d="M489.8,430.3c0-0.6,0-1.1,0-1.6h0.9l0.1,1h0c0.3-0.6,1-1.1,1.9-1.1c0.8,0,2.1,0.5,2.1,2.5v3.5h-1.1v-3.3
			c0-0.9-0.3-1.7-1.3-1.7c-0.7,0-1.2,0.5-1.4,1.1c0,0.1-0.1,0.3-0.1,0.5v3.5h-1.1V430.3z"/>
		<path class="st2" d="M505.7,435l3.3-8.7h0.8l-3.4,8.7H505.7z"/>
		<path class="st2" d="M527.8,430.4c0,2.8-1.7,4.3-3.8,4.3c-2.1,0-3.6-1.7-3.6-4.1c0-2.6,1.6-4.2,3.8-4.2
			C526.4,426.3,527.8,428,527.8,430.4z M521.6,430.5c0,1.7,0.9,3.3,2.6,3.3c1.7,0,2.6-1.5,2.6-3.4c0-1.6-0.8-3.3-2.6-3.3
			C522.4,427.2,521.6,428.8,521.6,430.5z"/>
		<path class="st2" d="M532.9,434.5v-5h-2.4v5h-1v-5h-0.8v-0.8h0.8v-0.2c0-0.8,0.2-1.5,0.6-2c0.3-0.3,0.8-0.5,1.5-0.5
			c0.3,0,0.6,0.1,0.8,0.2l-0.2,0.8c-0.2-0.1-0.4-0.1-0.6-0.1c-0.8,0-1.1,0.7-1.1,1.6v0.3h2.4v-0.3c0-0.8,0.2-1.6,0.7-2
			c0.4-0.4,0.9-0.5,1.4-0.5c0.4,0,0.7,0.1,0.9,0.2l-0.1,0.8c-0.2-0.1-0.4-0.1-0.7-0.1c-0.9,0-1.1,0.8-1.1,1.7v0.3h1.4v0.8H534v5
			H532.9z"/>
	</g>
	<path id="large" class="st0" d="M345.1,167.6c1.8-35.6,89-65.2,155.7-72.7c114.6-12.9,242.2,31.3,243.1,68.3
		c0.3,13.4-16,27.9-32.8,30.9c-31.8,5.5-46.7-33.8-101-50.7c-52.9-16.5-108.1-0.6-125.6,4.4c-67.2,19.3-93.3,58.6-120.2,48.5
		C351.8,191.6,344.6,178.4,345.1,167.6z"/>
	<path id="medium" class="st0" d="M388.8,268.3c1.5-35.2,74-64.5,129.4-71.9c95.2-12.7,201.3,30.9,202,67.5
		c0.3,13.3-13.3,27.6-27.2,30.5c-26.5,5.5-38.9-33.4-84-50.1c-44-16.3-89.9-0.6-104.4,4.4c-55.8,19-77.5,57.9-99.9,47.9
		C394.4,292.1,388.4,279.1,388.8,268.3z"/>
	<path id="small_1_" class="st0" d="M431.2,346.6c1.2-30.1,56.8-55.1,99.4-61.5c73.2-10.9,154.7,26.4,155.2,57.8
		c0.2,11.4-10.2,23.6-20.9,26.1c-20.3,4.7-29.8-28.6-64.5-42.8c-33.8-13.9-69-0.5-80.2,3.7c-42.9,16.3-59.5,49.5-76.7,41
		C435.5,366.9,430.8,355.8,431.2,346.6z"/>
</g>
</svg>
